<svg width="279" height="263" viewBox="0 0 279 263" fill="none" xmlns="http://www.w3.org/2000/svg">
<g clip-path="url(#clip0)">
<path d="M202.554 149.537V222L214.675 241.754L215.597 243.257H263.423L264.389 149.537H202.554Z" fill="#E6E6E6"/>
<path opacity="0.1" d="M202.554 149.537V222L214.675 241.754L215.418 149.537H202.554Z" fill="black"/>
<path d="M87.0943 147.604V220.068L74.9735 239.822L74.051 241.324H26.2251L25.2588 147.604H87.0943Z" fill="#E6E6E6"/>
<path opacity="0.1" d="M87.0942 147.604V220.068L74.9733 239.822L74.2295 147.604H87.0942Z" fill="black"/>
<path d="M278.881 146.156V150.503H18.9785V144.223L43.1329 131.663H257.625L278.881 146.156Z" fill="#E6E6E6"/>
<path opacity="0.1" d="M278.881 146.156V150.503H18.9785V144.223L278.881 146.156Z" fill="black"/>
<path d="M56.1773 167.894H44.5828L39.752 164.513H61.4911L56.1773 167.894Z" fill="#3F3D56"/>
<path d="M56.1773 181.904H44.5828L39.752 178.522H61.4911L56.1773 181.904Z" fill="#3F3D56"/>
<path d="M56.1773 201.711H44.5828L39.752 198.329H61.4911L56.1773 201.711Z" fill="#3F3D56"/>
<path d="M56.1773 221.517H44.5828L39.752 218.136H61.4911L56.1773 221.517Z" fill="#3F3D56"/>
<path d="M233.471 169.827H245.066L249.896 166.445H228.157L233.471 169.827Z" fill="#3F3D56"/>
<path d="M233.471 183.836H245.066L249.896 180.455H228.157L233.471 183.836Z" fill="#3F3D56"/>
<path d="M233.471 203.643H245.066L249.896 200.262H228.157L233.471 203.643Z" fill="#3F3D56"/>
<path d="M233.471 223.45H245.066L249.896 220.068H228.157L233.471 223.45Z" fill="#3F3D56"/>
<path d="M241.367 47.8658H143.76C143.275 47.8658 142.795 47.9612 142.347 48.1467C141.899 48.3322 141.492 48.6041 141.149 48.9469C140.807 49.2897 140.535 49.6966 140.349 50.1445C140.164 50.5924 140.068 51.0724 140.068 51.5572V117.308C140.068 117.793 140.164 118.273 140.349 118.72C140.535 119.168 140.807 119.575 141.149 119.918C141.492 120.261 141.899 120.533 142.347 120.718C142.795 120.904 143.275 120.999 143.76 120.999H180.812L179.424 129.862C179.424 129.862 171.491 134.076 177.069 134.2C182.647 134.324 208.925 134.2 208.925 134.2C208.925 134.2 214.007 134.2 205.95 129.738L204.645 120.999H241.367C241.851 120.999 242.331 120.904 242.779 120.718C243.227 120.533 243.634 120.261 243.977 119.918C244.32 119.575 244.592 119.168 244.777 118.72C244.963 118.273 245.058 117.793 245.058 117.308V51.5572C245.058 51.0724 244.963 50.5924 244.777 50.1445C244.592 49.6966 244.32 49.2897 243.977 48.9469C243.634 48.6041 243.227 48.3322 242.779 48.1467C242.331 47.9612 241.851 47.8658 241.367 47.8658V47.8658Z" fill="#3F3D56"/>
<path d="M241.525 51.7704H143.601V106.558H241.525V51.7704Z" fill="#F2F2F2"/>
<path d="M192.563 50.6548C192.905 50.6548 193.183 50.3773 193.183 50.0351C193.183 49.6928 192.905 49.4153 192.563 49.4153C192.221 49.4153 191.943 49.6928 191.943 50.0351C191.943 50.3773 192.221 50.6548 192.563 50.6548Z" fill="#F2F2F2"/>
<path d="M192.563 118.334C193.864 118.334 194.918 117.28 194.918 115.979C194.918 114.678 193.864 113.624 192.563 113.624C191.262 113.624 190.208 114.678 190.208 115.979C190.208 117.28 191.262 118.334 192.563 118.334Z" fill="#F2F2F2"/>
<path d="M188.893 140.894V142.134H122.205V141.142L122.297 140.894L123.94 136.432H187.529L188.893 140.894Z" fill="#3F3D56"/>
<path d="M214.556 139.68C214.435 140.2 213.976 140.748 212.94 141.266C209.221 143.125 201.66 140.77 201.66 140.77C201.66 140.77 195.834 139.778 195.834 137.175C195.998 137.063 196.168 136.962 196.345 136.872C197.908 136.044 203.092 134.003 212.283 136.958C212.96 137.17 213.565 137.567 214.03 138.103C214.237 138.306 214.392 138.554 214.483 138.828C214.574 139.103 214.599 139.395 214.556 139.68Z" fill="#3F3D56"/>
<path opacity="0.1" d="M214.556 139.68C210.005 141.424 205.947 141.555 201.784 138.663C200.209 137.499 198.303 136.871 196.345 136.872C197.908 136.044 203.092 134.003 212.283 136.958C212.96 137.17 213.565 137.567 214.031 138.103C214.237 138.306 214.392 138.554 214.483 138.828C214.574 139.103 214.599 139.395 214.556 139.68Z" fill="black"/>
<path d="M208.85 138.663C209.74 138.663 210.461 138.441 210.461 138.167C210.461 137.893 209.74 137.671 208.85 137.671C207.96 137.671 207.238 137.893 207.238 138.167C207.238 138.441 207.96 138.663 208.85 138.663Z" fill="#F2F2F2"/>
<path opacity="0.1" d="M188.893 140.894V142.134H122.205V141.142L122.297 140.894H188.893Z" fill="black"/>
<path d="M37.3854 0.682748C36.7086 0.627179 36.0309 0.778574 35.4421 1.11687C34.8639 1.51281 34.4995 2.20644 34.1275 2.85191C32.7054 5.34927 30.7801 7.52405 28.4736 9.2385C26.7936 10.4692 24.6577 12.0038 24.9451 14.273C25.0968 15.0223 25.3736 15.7408 25.764 16.3981C27.3139 19.5267 31.5431 21.9444 31.1271 25.5143C32.6669 22.9365 30.6073 21.6619 32.1471 19.0841C32.8804 17.8565 34.1542 16.4708 35.2613 17.2418C35.632 17.4999 35.8754 17.9629 36.2614 18.1894C37.1824 18.7298 38.1622 17.6966 38.9774 16.9648C41.7886 14.4412 45.7864 15.1023 49.2847 15.8886C50.9362 16.2598 52.7502 16.7468 53.7265 18.3253C55.0101 20.4006 52.5069 22.642 51.8745 24.9883C51.8229 25.1883 51.8204 25.3977 51.8674 25.5988C51.9143 25.7999 52.0093 25.9866 52.1442 26.143C52.279 26.2993 52.4497 26.4207 52.6417 26.4968C52.8337 26.5728 53.0412 26.6012 53.2466 26.5795C54.2963 26.4759 55.5397 26.3911 55.6018 25.9305C56.9225 25.9775 58.5407 25.8279 59.1065 24.4528C59.2795 23.9087 59.3709 23.342 59.3778 22.7711C59.5855 20.4611 60.5659 18.3538 61.2153 16.1552C61.8648 13.9567 62.1472 11.3802 61.0512 9.43094C60.66 8.78239 60.1762 8.19444 59.6152 7.68567C53.3953 1.66646 45.2175 0.673813 37.3854 0.682748Z" fill="#2F2E41"/>
<path d="M32.4801 30.0233C32.4801 30.0233 33.8328 41.2959 28.8729 42.1977C23.9129 43.0995 33.3819 58.4303 33.3819 58.4303L55.9271 61.1357L50.5163 43.0995C50.5163 43.0995 46.909 41.7468 49.1636 32.7287C51.4181 23.7106 32.4801 30.0233 32.4801 30.0233Z" fill="#FFB8B8"/>
<path d="M18.7275 223.687L20.5313 248.487H30L27.2949 223.687H18.7275Z" fill="#FFB8B8"/>
<path d="M88.167 176.793L89.5195 197.534L99.8907 193.025L95.8322 175.891L88.167 176.793Z" fill="#FFB8B8"/>
<path d="M11.9639 128.997C11.9639 128.997 12.4148 155.149 15.1202 163.716C17.8257 172.284 17.3747 172.735 16.9238 174.087C16.4729 175.44 16.022 174.538 16.022 176.793C16.022 179.047 15.1202 214.669 16.022 217.825C16.9238 220.981 13.3166 226.392 16.022 226.843C18.7274 227.294 31.3528 226.843 31.8037 224.138C32.2546 221.432 28.1964 220.53 30.0001 218.727C31.8037 216.923 34.5091 179.949 34.5091 179.949L40.8218 154.248L52.5453 140.72H77.345L85.0104 170.48C85.0104 170.48 81.8541 179.047 84.1086 179.047C86.3631 179.047 99.8903 181.753 99.8903 171.833C99.8903 161.913 95.3812 132.604 94.4794 131.702C93.5776 130.8 94.9303 127.644 93.5776 126.291C92.2249 124.939 76.4432 115.47 70.5815 113.666C64.7197 111.862 56.4967 109.716 56.4967 109.716L11.9639 128.997Z" fill="#2F2E41"/>
<path d="M99.8906 189.418C99.8906 189.418 93.127 187.164 89.9707 193.927C86.8143 200.691 88.1671 202.494 88.1671 202.494C88.1671 202.494 98.5379 206.102 100.341 204.298C101.126 203.513 103.618 203.241 106.183 203.183C110.089 203.095 111.129 197.569 107.439 196.282C107.329 196.243 107.218 196.21 107.105 196.182C103.498 195.28 99.8906 189.418 99.8906 189.418Z" fill="#2F2E41"/>
<path d="M42.6258 37.4633C50.0966 37.4633 56.1529 31.407 56.1529 23.9362C56.1529 16.4654 50.0966 10.4091 42.6258 10.4091C35.1549 10.4091 29.0986 16.4654 29.0986 23.9362C29.0986 31.407 35.1549 37.4633 42.6258 37.4633Z" fill="#FFB8B8"/>
<path d="M25.0402 47.8341C25.0402 47.8341 47.1345 52.3432 52.5454 45.1287C57.9562 37.9142 60.2108 65.4194 60.2108 65.4194L62.9162 94.2773L58.858 110.059C58.858 110.059 37.6655 127.193 30.902 128.546C24.1384 129.899 13.7676 130.801 13.7676 130.801C13.7676 130.801 16.9239 80.7501 16.9239 79.8483C16.9239 78.9465 25.0402 47.8341 25.0402 47.8341Z" fill="#6C63FF"/>
<path d="M31.7598 39.3775C31.7598 39.3775 26.844 36.5615 25.4913 39.2669C24.1386 41.9723 11.5132 48.7359 10.1605 48.7359C8.8078 48.7359 12.8659 86.161 11.0623 90.67C9.2587 95.1791 0.691517 128.095 5.65147 130.801C10.6114 133.506 7.00418 128.095 11.9641 134.859C16.9241 141.622 41.2729 141.622 42.6256 138.917C43.9784 136.211 31.8039 115.921 34.0585 96.9827C36.313 78.0447 39.9202 51.8922 36.7639 48.285C33.6076 44.6778 31.7598 39.3775 31.7598 39.3775Z" fill="#2F2E41"/>
<path d="M48.0361 42.4233L48.6642 40.2618C48.6642 40.2618 67.425 46.4814 68.3268 50.5396C69.2287 54.5977 68.7777 83.0047 65.6214 85.2592C62.4651 87.5137 57.956 91.121 61.1124 96.5318C64.2687 101.943 67.8759 107.804 70.5814 108.255C73.2868 108.706 78.2467 111.863 76.894 115.019C75.5413 118.175 59.3087 112.313 59.3087 112.313C59.3087 112.313 48.487 104.197 48.9379 91.5718C49.3888 78.9465 48.0361 42.4233 48.0361 42.4233Z" fill="#2F2E41"/>
<path d="M63.8178 95.6299L52.9961 115.921C52.9961 115.921 37.2145 132.153 46.2326 133.957C55.2507 135.76 60.2106 119.077 60.2106 119.077L71.9342 102.393L63.8178 95.6299Z" fill="#FFB8B8"/>
<path d="M38.0447 4.22214C37.4995 4.18174 36.9533 4.28767 36.4627 4.52898C36.0191 4.85294 35.6535 5.27192 35.3927 5.75529C34.19 7.5644 32.6222 9.10198 30.7901 10.2693C29.4225 11.1392 27.6838 12.2238 27.9178 13.8276C28.0448 14.3653 28.2709 14.8747 28.5844 15.3297C29.8504 17.5633 30.3544 20.1484 30.0201 22.694L33.7805 17.2281C34.3774 16.3605 35.4144 15.3811 36.3156 15.9259C36.6174 16.1084 36.8155 16.4356 37.1297 16.5957C37.8795 16.9777 38.677 16.2474 39.3407 15.7302C41.6291 13.9465 44.8835 14.4138 47.7312 14.9695C49.0756 15.2319 50.5523 15.5761 51.347 16.6918C52.6677 18.5457 51.2887 21.2246 52.0595 23.3664C52.2752 23.2153 52.4585 23.0225 52.5983 22.7993C52.7382 22.5761 52.8318 22.3271 52.8736 22.067C53.9487 22.1003 55.266 21.9946 55.7266 21.0226C55.8667 20.6417 55.9414 20.2398 55.9474 19.834C56.1165 18.2014 56.9146 16.7119 57.4433 15.158C57.972 13.6041 58.2019 11.783 57.3096 10.4053C56.9832 9.93849 56.5893 9.52277 56.1407 9.17175C51.0774 4.91741 44.4204 4.21583 38.0447 4.22214Z" fill="#2F2E41"/>
<path d="M63.8182 48.7358L68.0193 49.851C68.0193 49.851 77.7962 74.8883 75.5417 92.0227C73.2872 109.157 71.9345 105.55 71.9345 105.55C71.9345 105.55 68.3272 97.4335 60.2109 99.2372L63.8182 48.7358Z" fill="#2F2E41"/>
<path d="M19.3522 245.209C18.2649 246.687 18.4829 248.799 17.5197 250.36C16.6848 251.714 15.1114 252.423 14.0671 253.623C13.7339 254.021 13.4368 254.448 13.1794 254.899C12.2107 256.522 11.4233 258.602 12.3774 260.233C13.1449 261.545 14.7581 262.058 16.2376 262.408C18.1076 262.85 20.0506 263.203 21.9422 262.866C23.8338 262.528 25.6825 261.37 26.357 259.57C26.4895 259.118 26.6471 258.673 26.829 258.238C27.8543 256.22 31.0702 256.198 32.1195 254.192C32.8538 252.788 32.1788 251.091 31.504 249.658L29.4432 245.28C28.7594 243.827 25.987 244.662 24.5417 244.314C22.6567 243.86 20.7082 243.36 19.3522 245.209Z" fill="#2F2E41"/>
<path d="M4.29883 104.648L23.2368 133.957C23.2368 133.957 34.9603 148.837 38.5676 142.073C42.1748 135.31 25.9422 124.037 25.9422 124.037L13.7678 101.492L4.29883 104.648Z" fill="#FFB8B8"/>
<path d="M13.7677 49.6377L10.1605 48.7358C10.1605 48.7358 2.94605 50.9904 1.14243 60.4594C-0.661187 69.9284 0.691522 107.804 2.94604 108.255C5.20057 108.706 14.0811 101.66 15.5026 103.154C16.9241 104.648 12.415 96.9826 13.7677 92.9245C15.1204 88.8663 13.7677 49.6377 13.7677 49.6377Z" fill="#2F2E41"/>
<path d="M183.295 69.7646H171.641V72.5703H183.295V69.7646Z" fill="#6C63FF"/>
<path d="M223.652 69.7646H219.552V72.5703H223.652V69.7646Z" fill="#6C63FF"/>
<path d="M231.853 69.7646H227.753V72.5703H231.853V69.7646Z" fill="#6C63FF"/>
<path d="M215.235 69.7646H187.395V72.5703H215.235V69.7646Z" fill="#6C63FF"/>
<path d="M168.619 87.8933H156.965V90.6989H168.619V87.8933Z" fill="#6C63FF"/>
<path d="M208.976 87.8933H204.876V90.6989H208.976V87.8933Z" fill="#6C63FF"/>
<path d="M217.178 87.8933H213.077V90.6989H217.178V87.8933Z" fill="#6C63FF"/>
<path d="M200.56 87.8933H172.72V90.6989H200.56V87.8933Z" fill="#6C63FF"/>
<path d="M216.746 76.0233H205.092V78.8289H216.746V76.0233Z" fill="#6C63FF"/>
<path d="M232.501 76.0233H220.847V78.8289H232.501V76.0233Z" fill="#6C63FF"/>
<path d="M161.065 76.0233H156.965V78.8289H161.065V76.0233Z" fill="#6C63FF"/>
<path d="M169.267 76.0233H165.166V78.8289H169.267V76.0233Z" fill="#6C63FF"/>
<path d="M201.208 76.0233H173.367V78.8289H201.208V76.0233Z" fill="#6C63FF"/>
<path d="M192.574 82.0662H180.92V84.8718H192.574V82.0662Z" fill="#6C63FF"/>
<path d="M176.82 82.0662H165.166V84.8718H176.82V82.0662Z" fill="#6C63FF"/>
<path d="M161.065 82.0662H156.965V84.8718H161.065V82.0662Z" fill="#6C63FF"/>
<path d="M232.501 82.0662H228.4V84.8718H232.501V82.0662Z" fill="#6C63FF"/>
<path d="M224.299 82.0662H196.459V84.8718H224.299V82.0662Z" fill="#6C63FF"/>
</g>
<defs>
<clipPath id="clip0">
<rect width="278.575" height="262.317" fill="white" transform="translate(0.306641 0.682617)"/>
</clipPath>
</defs>
</svg>
